<svg width="20" height="21" viewBox="0 0 20 21" fill="none" xmlns="http://www.w3.org/2000/svg">
<g id="fi:bell">
<path id="Vector" d="M15 7.16663C15 5.84054 14.4732 4.56877 13.5355 3.63109C12.5979 2.69341 11.3261 2.16663 10 2.16663C8.67392 2.16663 7.40215 2.69341 6.46447 3.63109C5.52678 4.56877 5 5.84054 5 7.16663C5 13 2.5 14.6666 2.5 14.6666H17.5C17.5 14.6666 15 13 15 7.16663Z" stroke="white" stroke-width="1.5" stroke-linecap="round" stroke-linejoin="round"/>
<path id="Vector_2" d="M11.4417 18C11.2952 18.2526 11.0849 18.4622 10.8319 18.6079C10.5789 18.7537 10.292 18.8304 10 18.8304C9.70803 18.8304 9.42117 18.7537 9.16816 18.6079C8.91515 18.4622 8.70486 18.2526 8.55835 18" stroke="white" stroke-width="1.5" stroke-linecap="round" stroke-linejoin="round"/>
</g>
</svg>
