<svg width="200" height="200" viewBox="0 0 200 200" fill="none" xmlns="http://www.w3.org/2000/svg">
<g id="ion:image">
<path id="Vector" d="M162.5 25H37.5C30.8718 25.0072 24.5172 27.6435 19.8303 32.3303C15.1435 37.0172 12.5072 43.3718 12.5 50V150C12.5072 156.628 15.1435 162.983 19.8303 167.67C24.5172 172.357 30.8718 174.993 37.5 175H162.5C169.128 174.993 175.483 172.357 180.17 167.67C184.857 162.983 187.493 156.628 187.5 150V50C187.493 43.3718 184.857 37.0172 180.17 32.3303C175.483 27.6435 169.128 25.0072 162.5 25ZM131.25 50C134.958 50 138.584 51.0997 141.667 53.1599C144.75 55.2202 147.154 58.1486 148.573 61.5747C149.992 65.0008 150.363 68.7708 149.64 72.4079C148.916 76.0451 147.13 79.386 144.508 82.0083C141.886 84.6305 138.545 86.4163 134.908 87.1397C131.271 87.8632 127.501 87.4919 124.075 86.0727C120.649 84.6536 117.72 82.2504 115.66 79.1669C113.6 76.0835 112.5 72.4584 112.5 68.75C112.505 63.7788 114.482 59.0126 117.997 55.4975C121.513 51.9823 126.279 50.0052 131.25 50ZM37.5 162.5C34.1848 162.5 31.0054 161.183 28.6612 158.839C26.317 156.495 25 153.315 25 150V123.582L62.0469 90.6523C65.6213 87.4823 70.2698 85.7942 75.0455 85.9321C79.8211 86.07 84.3645 88.0235 87.75 91.3945L113.121 116.711L67.332 162.5H37.5ZM175 150C175 153.315 173.683 156.495 171.339 158.839C168.995 161.183 165.815 162.5 162.5 162.5H85.0117L132.441 115.07C135.799 112.215 140.061 110.641 144.469 110.63C148.877 110.618 153.147 112.17 156.52 115.008L175 130.406V150Z" fill="#F1E2C3"/>
</g>
</svg>
