
<svg xmlns="http://www.w3.org/2000/svg" width="16" height="16" viewBox="0 0 16 16" fill="currentColor">
  <g clip-path="url(#clip0_437_5413)">
    <path
      d="M0.340426 2.77447H5.95745V4.52766C5.95745 4.71489 6.11064 4.86809 6.29787 4.86809C6.48511 4.86809 6.6383 4.71489 6.6383 4.52766V2.77447H15.6596C15.8468 2.77447 16 2.62128 16 2.43404C16 2.24681 15.8468 2.09362 15.6596 2.09362H6.6383V0.340426C6.6383 0.153191 6.48511 0 6.29787 0C6.11064 0 5.95745 0.153191 5.95745 0.340426V2.09362H0.340426C0.153191 2.09362 0 2.24681 0 2.43404C0 2.62128 0.153191 2.77447 0.340426 2.77447Z"
      fill="#130019" />
    <path
      d="M15.6596 7.66002H11.7447V5.90683C11.7447 5.7196 11.5915 5.56641 11.4043 5.56641C11.217 5.56641 11.0638 5.7196 11.0638 5.90683V7.66002H0.340426C0.153191 7.66002 0 7.81321 0 8.00045C0 8.18768 0.153191 8.34087 0.340426 8.34087H11.0638V10.0941C11.0638 10.2813 11.217 10.4345 11.4043 10.4345C11.5915 10.4345 11.7447 10.2813 11.7447 10.0941V8.34087H15.6596C15.8468 8.34087 16 8.18768 16 8.00045C16 7.81321 15.8468 7.66002 15.6596 7.66002Z"
      fill="#130019" />
    <path
      d="M15.6596 13.2264H4.93617V11.4732C4.93617 11.286 4.78298 11.1328 4.59574 11.1328C4.40851 11.1328 4.25532 11.286 4.25532 11.4732V13.2264H0.340426C0.153191 13.2264 0 13.3796 0 13.5669C0 13.7541 0.153191 13.9073 0.340426 13.9073H4.25532V15.6605C4.25532 15.8477 4.40851 16.0009 4.59574 16.0009C4.78298 16.0009 4.93617 15.8477 4.93617 15.6605V13.9073H15.6596C15.8468 13.9073 16 13.7541 16 13.5669C16 13.3796 15.8468 13.2264 15.6596 13.2264Z"
      fill="#130019" />
  </g>
  <defs>
    <clipPath id="clip0_437_5413">
      <rect width="16" height="16" fill="white" />
    </clipPath>
  </defs>
</svg>
